<svg xmlns="http://www.w3.org/2000/svg" width="32" height="32" viewBox="0 0 32 32"><g fill="none"><path fill="#b0b0b0" d="M15.545 5.72c1.388-.02 2.763.255 4.022.75c2.175.855 7.1 1.308 8.078 3.08c1.157 2.1-.67 7.278-.567 8.127c.097.823.12 1.868.017 2.67c-.18 1.4-.732 2.76-1.687 3.985c-.966 1.235-2.47 2.296-4.56 2.91c-4.408 1.293-10.27.468-12.57-1.437c-.863-.712-1.503-1.465-1.96-2.27c-.765-1.34-1.03-2.823-.985-4.505c.072-2.693-2.85-6.693-.838-8.955s7.05-3.46 7.05-3.46s1.592-.857 4-.895"/><path fill="#febdbe" d="M23.24 8.69c.06.252.695 1.077 1.485 2.61c.758 1.467 1.365 2.992 1.485 3.018c.285.057 3.232-.863 3.255-.958c.025-.095-1.005-5.028-1.005-5.028L23.793 7.04zM7.045 11.468c.79-1.858 1.425-2.383 1.498-2.693S5.79 7.9 5.79 7.9L2.7 9.742l.765 3.688s2.13 1.76 2.275 1.735c.145-.022.515-1.842 1.305-3.697"/><path fill="url(#unjsConsola0)" d="M11.678 6.608c.095-.888-3.448-1.795-4.525-1.173c-.788.455.047.863-.288 1.15c-.222.19-2.25-.765-3.757.383c-1.148.872-.503.957-.575 1.245c-.073.287-.79.742-1.245 1.437s-.695 1.688-.55 1.842c.177.193.697-.192.765.193c.072.407-.808 1.745-.408 2.967c.383 1.173.718.288.983.648c.262.36.025.885.647 2.01c.415.75.9.985 1.078 1.03c.287.073.24-.288.597-.31c.36-.025.933 1.005.933 1.005s-.025-.863.132-2.203c.158-1.35.443-1.772.42-1.987c-.025-.215-2.345-1.628-1.532-4.045c.812-2.418 3.04-1.988 3.327-1.915c.288.072.743.24 1.413.072c.67-.172 2.49-1.465 2.585-2.35"/><path fill="url(#unjsConsola1)" d="M19.458 6.488c-.038.302.89 1.017 1.507 1.412c.863.55 1.795.885 2.155.885s2.967-1.485 4.31.765c1.34 2.25-1.15 4.43-1.22 4.765c-.012.468.182.732.442 1.748c.24.932.348 1.28.408 1.652c.09.155 1.117-.663 1.688-1.532c.407-.623.43-1.27.67-1.34c.24-.073.382.67.695.622c.31-.047.872-1.675.755-2.8c-.168-1.58-1.113-2.107-.825-2.61c.287-.502.932.095 1.15-.31c.214-.407-.31-1.555-1.103-2.107s-1.58-.48-1.7-.765c-.12-.288.407-.43.407-.743c0-.31-.862-.79-2.37-.862c-1.294-.063-2.465.622-2.537.24c-.073-.383.262-.36.24-.528c-.025-.167-.92-.562-2.25-.192c-1.032.287-2.375 1.322-2.422 1.7"/><path fill="#2f2f2f" d="M21.205 14.8c-.9.045-1.06 1.06-1.005 1.742c.058.738.253 1.615 1.185 1.598c.952-.018 1.185-1.023 1.202-1.795c.02-.772-.285-1.597-1.382-1.545m-10.27-.053c-.9.046-1.137.77-1.112 1.456c.035 1.06.647 1.867 1.292 1.884c.953.028 1.15-.862 1.168-1.634c.017-.773-.253-1.76-1.348-1.705"/><path fill="#dfdfdf" d="M21.423 15.933c-.155.362-.515.634-.735.542c-.22-.093-.27-.463-.115-.825c.154-.363.457-.58.674-.485c.22.093.33.405.175.768m-10.253.16c-.187.325-.647.555-.863.43c-.215-.123-.172-.55.015-.875c.188-.325.513-.49.728-.365c.212.122.307.485.12.81"/><path fill="url(#unjsConsola2)" d="m16.933 23.618l-1.868-.035l-1.545-.52s-.03.975.018 1.562c.054.648.682 2.012 2.73 1.975c1.992-.035 2.657-1.253 2.674-1.992c.018-.736-.017-1.31-.017-1.31z"/><path fill="#2f2f2f" d="M16.233 23.223a5.7 5.7 0 0 1-1.67-.253c-.306-.107-.756-.43-1.043-.09s.125.79.79 1.005s1.167.34 1.885.322c.898-.022 1.723-.18 2.01-.27c.288-.09.963-.382.773-.844c-.216-.52-.593-.18-1.078-.055c-.482.13-1.057.165-1.667.184"/><path fill="#303030" d="M16.215 14.998c-1.795-.038-2.352 1.417-2.495 2.37c-.143.952-.285 1.935-.03 3.1c.253 1.15 1.16 1.805 2.508 1.782c1.185-.017 1.87-.435 2.227-1.13c.395-.773.377-1.545.305-3.215c-.073-1.668-.845-2.873-2.515-2.908"/><path fill="#afafaf" d="M16.565 21.435c0 .173.258.273.547.188c.306-.09.78-.368.926-.693c.077-.172.017-.43-.17-.35c-.188.08-.34.26-.603.423c-.26.162-.7.297-.7.432m-1.393-.45c-.4-.242-.53-.44-.71-.377c-.18.062-.08.422.108.582s.52.412.862.485c.268.055.45-.152.36-.27c-.09-.115-.322-.24-.62-.42"/><defs><linearGradient id="unjsConsola0" x1="2.96" x2="7.626" y1="18.214" y2="4.662" gradientUnits="userSpaceOnUse"><stop offset=".182" stop-color="#c9c7c8"/><stop offset=".256" stop-color="#bdbcbd"/><stop offset=".411" stop-color="#a8a8aa"/><stop offset=".498" stop-color="#9e9ea1"/><stop offset=".648" stop-color="#828487"/><stop offset=".799" stop-color="#606468"/></linearGradient><linearGradient id="unjsConsola1" x1="29.3" x2="23.605" y1="16.771" y2="3.979" gradientUnits="userSpaceOnUse"><stop offset=".164" stop-color="#c9c7c8"/><stop offset=".244" stop-color="#bdbcbd"/><stop offset=".411" stop-color="#a8a8aa"/><stop offset=".486" stop-color="#96979a"/><stop offset=".674" stop-color="#6f7276"/><stop offset=".772" stop-color="#606468"/></linearGradient><radialGradient id="unjsConsola2" cx="0" cy="0" r="1" gradientTransform="translate(16.16 19.72)scale(6.04775)" gradientUnits="userSpaceOnUse"><stop offset=".784" stop-color="#febdbb"/><stop offset=".821" stop-color="#f5bebc"/><stop offset=".88" stop-color="#dcc1c0"/><stop offset=".922" stop-color="#c7c3c3"/></radialGradient></defs></g></svg>